<svg xmlns="http://www.w3.org/2000/svg" xmlns:xlink="http://www.w3.org/1999/xlink" id="Capa_1" x="0" y="0" version="1.1" viewBox="0 0 253.16 247.74" xml:space="preserve" style="enable-background:new 0 0 253.16 247.74"><style type="text/css">.st0,.st1{stroke:#211915;stroke-miterlimit:10}.st1{fill:none}</style><path d="M16.48,140.91c33.18-29.98,64.77-8.57,73.04-1.84c1.25,1.02,3.06,0.99,4.3-0.04	c31.74-26.32,58.46-6.65,65.84-0.06c1.21,1.08,3.01,1.13,4.29,0.15c30.73-23.35,56.75-10.63,67.81-2.84	c1.21,0.85,4.26,2.79,5.35,2.13c1.02-0.63,0.42-3.41-0.02-5.19c-19.31-78.22-83.01-91.23-99.42-92.86	c-1.74-0.17-3.06-1.63-3.06-3.37l0.02-18.86c0-1.98-4.85-5.9-7.92-5.9c-2.77,0-5.87,2.41-7.48,3.85c-0.71,0.64-1.1,1.55-1.1,2.5	v18.18c0,1.74-1.32,3.21-3.05,3.37c-8.22,0.8-31.81,4.3-55.36,19.25C42.59,70.27,13.27,103.55,16.48,140.91" class="st0"/><path d="M145.16,227.23" class="st1"/><path d="M119.07,145.06c0,11.26,0,50.87,0,62.52c0,2.52-0.72,4.98-2.11,7.09c-2.7,4.11-7.99,9.85-15.96,8.41	c0,0-13.71,0.49-16.6-11.44c-0.13-0.54-0.18-1.1-0.18-1.65l0-5.24c0-0.75-0.1-1.48-0.32-2.2c-0.66-2.15-2.6-5.94-8.07-5.66	c-7.61,0.39-7.48,6.58-7.48,6.58l0,7.61c0,0,1.16,28.84,32.65,28.84c28.44,0,34.24-23.63,35.1-28.21c0.09-0.46,0.13-0.92,0.13-1.39	v-65.34c0-1.57-0.47-3.1-1.37-4.38c-2.14-3.02-6.71-7.18-13.33-1.16C119.95,140.88,119.07,142.93,119.07,145.06z" class="st0"/><path d="M18.85,138.86" class="st0"/></svg>